<svg width="255" height="37" viewBox="0 0 255 37" fill="none" xmlns="http://www.w3.org/2000/svg">
<path d="M29.3039 36H22.5839L7.36794 13.008V36H0.647938V2.448H7.36794L22.5839 25.488V2.448H29.3039V36ZM34.2168 22.608C34.2168 19.92 34.7448 17.536 35.8008 15.456C36.8888 13.376 38.3448 11.776 40.1688 10.656C42.0248 9.536 44.0888 8.976 46.3608 8.976C48.3448 8.976 50.0728 9.376 51.5448 10.176C53.0488 10.976 54.2488 11.984 55.1448 13.2V9.408H61.9128V36H55.1448V32.112C54.2808 33.36 53.0808 34.4 51.5448 35.232C50.0408 36.032 48.2968 36.432 46.3128 36.432C44.0728 36.432 42.0248 35.856 40.1688 34.704C38.3448 33.552 36.8888 31.936 35.8008 29.856C34.7448 27.744 34.2168 25.328 34.2168 22.608ZM55.1448 22.704C55.1448 21.072 54.8248 19.68 54.1848 18.528C53.5448 17.344 52.6808 16.448 51.5928 15.84C50.5048 15.2 49.3368 14.88 48.0888 14.88C46.8408 14.88 45.6888 15.184 44.6328 15.792C43.5768 16.4 42.7128 17.296 42.0408 18.48C41.4008 19.632 41.0808 21.008 41.0808 22.608C41.0808 24.208 41.4008 25.616 42.0408 26.832C42.7128 28.016 43.5768 28.928 44.6328 29.568C45.7208 30.208 46.8728 30.528 48.0888 30.528C49.3368 30.528 50.5048 30.224 51.5928 29.616C52.6808 28.976 53.5448 28.08 54.1848 26.928C54.8248 25.744 55.1448 24.336 55.1448 22.704ZM101.5 9.024C104.764 9.024 107.388 10.032 109.372 12.048C111.388 14.032 112.396 16.816 112.396 20.4V36H105.676V21.312C105.676 19.232 105.148 17.648 104.092 16.56C103.036 15.44 101.596 14.88 99.7721 14.88C97.9481 14.88 96.4921 15.44 95.4041 16.56C94.3481 17.648 93.8201 19.232 93.8201 21.312V36H87.1001V21.312C87.1001 19.232 86.5721 17.648 85.5161 16.56C84.4601 15.44 83.0201 14.88 81.1961 14.88C79.3401 14.88 77.8681 15.44 76.7801 16.56C75.7241 17.648 75.1961 19.232 75.1961 21.312V36H68.4761V9.408H75.1961V12.624C76.0601 11.504 77.1641 10.624 78.5081 9.984C79.8841 9.344 81.3881 9.024 83.0201 9.024C85.1001 9.024 86.9561 9.472 88.5881 10.368C90.2201 11.232 91.4841 12.48 92.3801 14.112C93.2441 12.576 94.4921 11.344 96.1241 10.416C97.7881 9.488 99.5801 9.024 101.5 9.024ZM143.493 22.128C143.493 23.088 143.429 23.952 143.301 24.72H123.861C124.021 26.64 124.693 28.144 125.877 29.232C127.061 30.32 128.517 30.864 130.245 30.864C132.741 30.864 134.517 29.792 135.573 27.648H142.821C142.053 30.208 140.581 32.32 138.405 33.984C136.229 35.616 133.557 36.432 130.389 36.432C127.829 36.432 125.525 35.872 123.477 34.752C121.461 33.6 119.877 31.984 118.725 29.904C117.605 27.824 117.045 25.424 117.045 22.704C117.045 19.952 117.605 17.536 118.725 15.456C119.845 13.376 121.413 11.776 123.429 10.656C125.445 9.536 127.765 8.976 130.389 8.976C132.917 8.976 135.173 9.52 137.157 10.608C139.173 11.696 140.725 13.248 141.813 15.264C142.933 17.248 143.493 19.536 143.493 22.128ZM136.533 20.208C136.501 18.48 135.877 17.104 134.661 16.08C133.445 15.024 131.957 14.496 130.197 14.496C128.533 14.496 127.125 15.008 125.973 16.032C124.853 17.024 124.165 18.416 123.909 20.208H136.533ZM171.198 2.496V7.92H162.27V36H155.55V7.92H146.622V2.496H171.198ZM191.077 9.024C193.093 9.024 194.885 9.472 196.453 10.368C198.021 11.232 199.237 12.528 200.101 14.256C200.997 15.952 201.445 18 201.445 20.4V36H194.725V21.312C194.725 19.2 194.197 17.584 193.141 16.464C192.085 15.312 190.645 14.736 188.821 14.736C186.965 14.736 185.493 15.312 184.405 16.464C183.349 17.584 182.821 19.2 182.821 21.312V36H176.101V0.48H182.821V12.72C183.685 11.568 184.837 10.672 186.277 10.032C187.717 9.36 189.317 9.024 191.077 9.024ZM206.107 22.608C206.107 19.92 206.635 17.536 207.691 15.456C208.779 13.376 210.235 11.776 212.059 10.656C213.915 9.536 215.979 8.976 218.251 8.976C220.235 8.976 221.963 9.376 223.435 10.176C224.939 10.976 226.139 11.984 227.035 13.2V9.408H233.803V36H227.035V32.112C226.171 33.36 224.971 34.4 223.435 35.232C221.931 36.032 220.187 36.432 218.203 36.432C215.963 36.432 213.915 35.856 212.059 34.704C210.235 33.552 208.779 31.936 207.691 29.856C206.635 27.744 206.107 25.328 206.107 22.608ZM227.035 22.704C227.035 21.072 226.715 19.68 226.075 18.528C225.435 17.344 224.571 16.448 223.483 15.84C222.395 15.2 221.227 14.88 219.979 14.88C218.731 14.88 217.579 15.184 216.523 15.792C215.467 16.4 214.603 17.296 213.931 18.48C213.291 19.632 212.971 21.008 212.971 22.608C212.971 24.208 213.291 25.616 213.931 26.832C214.603 28.016 215.467 28.928 216.523 29.568C217.611 30.208 218.763 30.528 219.979 30.528C221.227 30.528 222.395 30.224 223.483 29.616C224.571 28.976 225.435 28.08 226.075 26.928C226.715 25.744 227.035 24.336 227.035 22.704ZM248.191 14.928V27.792C248.191 28.688 248.399 29.344 248.815 29.76C249.263 30.144 249.999 30.336 251.023 30.336H254.143V36H249.919C244.255 36 241.423 33.248 241.423 27.744V14.928H238.255V9.408H241.423V2.832H248.191V9.408H254.143V14.928H248.191Z" fill="url(#paint0_linear_20_415)"/>
<defs>
<linearGradient id="paint0_linear_20_415" x1="8.95385" y1="19" x2="238.069" y2="19" gradientUnits="userSpaceOnUse">
<stop stop-color="#E4A2B1"/>
<stop offset="1" stop-color="#FBE2A7"/>
</linearGradient>
</defs>
</svg>
